<?xml version="1.0" standalone="no"?><!DOCTYPE svg PUBLIC "-//W3C//DTD SVG 1.1//EN" "http://www.w3.org/Graphics/SVG/1.1/DTD/svg11.dtd"><svg t="1690881756116" class="icon" viewBox="0 0 1024 1024" version="1.1" xmlns="http://www.w3.org/2000/svg" p-id="1456" xmlns:xlink="http://www.w3.org/1999/xlink" width="200" height="200"><path d="M768 341.333333h-42.666667V256c0-117.76-95.573333-213.333333-213.333333-213.333333S298.666667 138.24 298.666667 256v85.333333H256c-46.933333 0-85.333333 38.4-85.333333 85.333334v426.666666c0 46.933333 38.4 85.333333 85.333333 85.333334h512c46.933333 0 85.333333-38.4 85.333333-85.333334V426.666667c0-46.933333-38.4-85.333333-85.333333-85.333334z m-256 384c-46.933333 0-85.333333-38.4-85.333333-85.333333s38.4-85.333333 85.333333-85.333333 85.333333 38.4 85.333333 85.333333-38.4 85.333333-85.333333 85.333333z m132.266667-384H379.733333V256c0-72.96 59.306667-132.266667 132.266667-132.266667 72.96 0 132.266667 59.306667 132.266667 132.266667v85.333333z" p-id="1457" fill="#ffffff"></path></svg>